<?xml version="1.0" standalone="no"?>
<!DOCTYPE svg PUBLIC "-//W3C//DTD SVG 20010904//EN"
 "http://www.w3.org/TR/2001/REC-SVG-20010904/DTD/svg10.dtd">
<svg version="1.0" xmlns="http://www.w3.org/2000/svg"
 width="512.000000pt" height="512.000000pt" viewBox="0 0 512.000000 512.000000"
 preserveAspectRatio="xMidYMid meet">

<g transform="translate(0.000000,512.000000) scale(0.100000,-0.100000)"
fill="#000000" stroke="none">
<path d="M0 2560 l0 -2560 2560 0 2560 0 0 2560 0 2560 -2560 0 -2560 0 0
-2560z m4962 -5 l-2 -2395 -2400 -2 c-1320 -2 -2400 -1 -2400 2 0 6 4793 4789
4800 4789 3 1 4 -1077 2 -2394z m-2927 1725 c109 -23 246 -66 269 -84 13 -10
9 -158 -13 -541 -1 -5 -25 -10 -54 -10 l-52 1 -3 34 c-10 131 -45 255 -96 335
-39 61 -132 127 -210 150 -178 53 -404 35 -584 -46 -286 -129 -535 -492 -611
-892 -78 -407 5 -819 207 -1038 118 -128 245 -187 422 -196 274 -14 468 111
696 450 37 53 71 97 76 97 6 0 27 -9 48 -21 l37 -21 -34 -82 c-57 -136 -118
-260 -177 -359 l-55 -94 -103 -22 c-246 -51 -279 -55 -483 -55 -230 -1 -314
14 -460 83 -303 142 -476 389 -525 748 -17 124 -7 386 19 513 52 259 157 461
335 648 236 247 517 382 886 426 89 11 368 -4 465 -24z"/>
<path d="M2604 2524 c-7 -40 4 -54 45 -54 38 0 99 -21 121 -42 37 -35 27 -123
-96 -875 -63 -389 -122 -739 -131 -778 -30 -136 -64 -174 -178 -195 -58 -11
-63 -14 -69 -42 -3 -17 -6 -34 -6 -39 0 -5 497 -9 1144 -9 1261 0 1156 -6
1156 61 0 26 -3 29 -33 29 -48 0 -135 28 -158 51 -35 35 -25 126 96 869 127
781 130 795 151 862 19 60 53 85 140 103 76 16 79 18 87 63 l6 32 -324 0 -324
0 -7 -36 c-7 -39 4 -54 40 -54 34 0 95 -23 117 -43 20 -19 21 -27 16 -116 -5
-107 -237 -1536 -262 -1619 -12 -40 -24 -58 -48 -73 -30 -18 -48 -19 -260 -17
-276 4 -262 -4 -253 133 7 116 240 1529 266 1618 24 78 52 103 133 113 57 8
77 25 77 65 l0 29 -307 -2 -308 -3 -6 -37 c-6 -41 -6 -41 61 -52 19 -3 49 -15
66 -25 41 -25 48 -64 34 -178 -20 -162 -240 -1497 -256 -1555 -29 -102 -29
-103 -291 -106 -248 -3 -265 0 -278 56 -9 43 5 142 130 900 113 685 133 791
160 843 16 30 64 56 130 68 55 10 54 10 62 55 l6 36 -321 0 -321 0 -7 -36z"/>
</g>
</svg>
