<?xml version="1.0" standalone="no"?>
<!DOCTYPE svg PUBLIC "-//W3C//DTD SVG 20010904//EN"
 "http://www.w3.org/TR/2001/REC-SVG-20010904/DTD/svg10.dtd">
<svg version="1.0" xmlns="http://www.w3.org/2000/svg"
 width="2133.000000pt" height="2133.000000pt" viewBox="0 0 2133.000000 2133.000000"
 preserveAspectRatio="xMidYMid meet">

<g transform="translate(0.000000,2133.000000) scale(0.100000,-0.100000)"
fill="#000000" stroke="none">
<path d="M10180 21299 c-58 -5 -134 -14 -170 -20 -244 -38 -434 -70 -577 -99
-29 -5 -74 -14 -100 -19 -27 -5 -75 -17 -108 -26 -33 -8 -78 -20 -100 -25 -22
-5 -58 -14 -80 -20 -22 -6 -56 -15 -75 -20 -67 -17 -106 -29 -233 -73 -70 -24
-130 -47 -134 -51 -3 -3 -12 -6 -20 -6 -13 0 -56 -18 -158 -65 -157 -72 -192
-88 -208 -96 -126 -65 -221 -118 -262 -144 -27 -18 -90 -58 -140 -89 -422
-268 -825 -673 -1101 -1106 -240 -376 -450 -865 -554 -1290 -5 -19 -16 -60
-24 -91 -23 -82 -55 -278 -67 -409 -16 -170 -27 -522 -38 -1195 -5 -330 -13
-672 -17 -760 l-7 -160 -121 -125 c-157 -161 -192 -212 -243 -349 -41 -113
-55 -200 -83 -522 -17 -197 -9 -512 21 -799 34 -336 162 -717 389 -1165 176
-346 315 -566 552 -872 153 -197 232 -308 296 -415 61 -101 82 -146 158 -345
375 -976 884 -1689 1587 -2221 102 -78 301 -212 313 -212 3 0 24 -13 47 -28
72 -49 249 -142 387 -203 36 -16 73 -34 82 -39 10 -6 25 -10 33 -10 8 0 23 -4
33 -9 9 -5 35 -17 57 -26 22 -10 48 -22 57 -26 10 -5 29 -9 42 -9 14 0 28 -4
31 -10 3 -5 17 -10 30 -10 13 0 26 -4 29 -9 3 -5 20 -11 38 -14 36 -6 82 -17
173 -42 33 -9 76 -18 95 -21 19 -2 42 -7 50 -11 61 -26 552 -62 700 -51 169
13 314 27 365 37 28 5 54 7 58 4 4 -3 13 0 20 5 7 6 32 12 57 15 25 3 58 10
74 16 16 6 37 9 46 6 10 -3 21 -2 24 3 3 5 41 18 83 27 43 10 82 22 87 27 6 4
22 8 37 8 15 0 31 4 34 10 3 5 19 10 36 10 16 0 29 5 29 10 0 6 10 10 23 10
12 0 31 7 41 15 11 8 26 15 33 15 7 0 35 9 61 21 26 12 56 24 67 29 49 18 344
166 413 207 478 282 919 686 1255 1148 189 259 311 462 456 755 58 118 111
229 118 245 6 17 36 91 66 165 72 175 91 227 122 332 30 102 91 196 289 452
267 343 412 553 550 795 208 362 368 752 436 1061 14 65 25 110 39 165 5 22
17 92 26 155 9 63 20 145 25 182 16 106 12 581 -5 721 -18 149 -34 254 -45
287 -4 14 -13 45 -20 70 -42 153 -121 280 -267 431 l-93 96 0 605 c0 341 -4
628 -10 659 -5 30 -11 97 -14 149 -9 170 -43 429 -71 543 -8 32 -15 69 -15 82
0 13 -4 34 -9 47 -5 13 -14 48 -21 78 -60 283 -164 557 -306 807 -92 163 -178
285 -253 363 -35 36 -73 81 -86 100 -30 48 -85 204 -125 355 -57 217 -172 474
-296 662 -83 126 -268 327 -394 427 -60 48 -226 166 -234 166 -1 0 -40 22 -84
49 -71 43 -339 178 -397 201 -11 4 -42 17 -70 30 -82 36 -108 47 -145 61 -19
7 -39 16 -44 21 -6 4 -20 8 -32 8 -13 0 -26 5 -29 10 -3 6 -17 10 -30 10 -13
0 -27 5 -30 10 -3 6 -16 10 -29 10 -12 0 -27 5 -33 11 -7 7 -20 12 -30 13 -10
1 -29 7 -43 13 -14 6 -45 16 -70 23 -25 7 -54 16 -65 20 -11 5 -31 11 -45 13
-14 3 -68 17 -120 32 -52 14 -106 28 -120 30 -14 2 -45 9 -70 15 -96 25 -181
43 -285 60 -38 7 -95 17 -125 23 -30 6 -58 10 -62 9 -4 -1 -31 3 -60 9 -29 5
-82 12 -118 15 -36 3 -72 8 -80 11 -59 23 -866 39 -1070 22z m4604 -6313 c59
-95 76 -136 76 -185 0 -78 -65 -389 -113 -541 -123 -393 -321 -724 -597 -1000
-215 -216 -461 -380 -705 -470 -11 -4 -33 -13 -50 -20 -112 -46 -285 -84 -462
-101 -183 -17 -456 10 -668 66 -33 9 -69 17 -80 19 -20 2 -153 41 -190 56 -11
4 -36 13 -55 20 -19 7 -44 16 -55 20 -11 5 -27 11 -35 14 -8 3 -22 10 -30 15
-8 5 -46 24 -85 42 -152 73 -353 228 -459 352 -157 187 -254 377 -336 662 -12
40 -47 213 -61 300 -6 39 -14 88 -17 110 l-7 40 -212 3 c-117 1 -213 1 -213 0
0 -4 -14 -83 -35 -203 -84 -483 -242 -792 -540 -1055 -134 -119 -343 -240
-515 -300 -19 -7 -44 -16 -55 -21 -62 -26 -195 -62 -350 -95 -342 -72 -668
-65 -935 22 -30 10 -59 17 -63 16 -5 -2 -20 4 -35 12 -32 16 -64 29 -112 46
-35 12 -122 53 -150 70 -8 5 -51 30 -95 56 -412 244 -767 678 -947 1159 -80
212 -120 368 -168 655 -14 79 0 124 73 238 l47 72 4094 0 4094 0 46 -74z"/>
<path d="M6945 9387 c-16 -5 -38 -13 -47 -18 -10 -5 -26 -9 -36 -9 -10 0 -22
-4 -27 -8 -6 -4 -28 -14 -50 -21 -35 -11 -106 -38 -195 -73 -14 -6 -33 -14
-42 -19 -10 -5 -25 -9 -33 -9 -8 0 -23 -4 -33 -9 -9 -5 -35 -17 -57 -26 -22
-9 -51 -21 -65 -27 -14 -6 -35 -15 -47 -19 -13 -5 -33 -13 -45 -18 -38 -14
-82 -33 -100 -42 -10 -5 -23 -9 -28 -9 -6 0 -37 -12 -68 -26 -31 -14 -67 -30
-79 -35 -13 -5 -35 -14 -50 -20 -16 -7 -38 -16 -50 -20 -51 -20 -70 -28 -123
-52 -30 -14 -71 -31 -90 -37 -19 -7 -54 -21 -77 -31 -24 -11 -45 -19 -48 -19
-2 0 -30 -12 -62 -26 -32 -14 -67 -30 -78 -34 -11 -4 -32 -12 -47 -19 -16 -6
-38 -15 -50 -20 -13 -5 -45 -19 -73 -32 -27 -12 -54 -23 -60 -25 -5 -1 -32
-12 -60 -24 -27 -12 -59 -26 -70 -30 -11 -4 -36 -15 -55 -23 -19 -8 -60 -25
-90 -38 -30 -12 -59 -26 -64 -31 -6 -4 -18 -8 -28 -8 -10 0 -18 -4 -18 -10 0
-5 -9 -10 -20 -10 -11 0 -28 -4 -38 -10 -19 -10 -166 -77 -197 -90 -11 -4 -40
-17 -65 -28 -25 -11 -63 -28 -85 -37 -22 -10 -69 -31 -105 -47 -36 -17 -83
-38 -105 -48 -22 -10 -76 -35 -120 -55 -44 -21 -98 -45 -120 -55 -46 -21 -352
-167 -375 -179 -8 -4 -37 -20 -63 -34 -26 -15 -51 -27 -56 -27 -4 0 -50 -23
-102 -51 -52 -28 -121 -66 -154 -84 -530 -288 -881 -539 -1244 -890 -94 -91
-141 -142 -339 -368 -55 -63 -179 -224 -271 -352 -15 -22 -52 -78 -81 -125
-29 -47 -63 -101 -75 -120 -63 -97 -157 -273 -287 -535 -151 -306 -167 -341
-255 -555 -31 -74 -61 -148 -68 -165 -7 -16 -27 -68 -45 -115 -17 -47 -38
-103 -47 -125 -51 -135 -168 -506 -209 -660 -38 -147 -114 -473 -135 -585 -6
-30 -15 -71 -20 -91 -5 -20 -9 -49 -9 -64 0 -15 -4 -44 -9 -64 -11 -39 -33
-184 -51 -321 -6 -47 -13 -101 -16 -120 -2 -19 -7 -69 -10 -110 -3 -41 -9 -99
-15 -129 -5 -30 -9 -181 -9 -335 0 -274 1 -282 24 -331 27 -59 100 -129 161
-156 24 -11 47 -24 50 -29 4 -6 10 -8 15 -5 5 3 11 1 15 -5 7 -11 53 -32 148
-69 37 -14 81 -33 99 -42 10 -5 24 -9 31 -9 7 0 37 -11 65 -25 29 -14 59 -25
67 -25 8 0 15 -4 15 -10 0 -5 14 -10 30 -10 17 0 30 -4 30 -10 0 -5 11 -10 24
-10 14 0 28 -4 31 -10 3 -5 17 -10 30 -10 13 0 27 -4 30 -10 3 -5 16 -10 29
-10 12 0 31 -7 42 -15 10 -8 29 -15 41 -15 12 0 25 -4 28 -10 3 -5 17 -10 30
-10 13 0 27 -4 30 -10 3 -5 17 -10 30 -10 13 0 27 -5 30 -10 3 -6 17 -10 31
-10 13 0 32 -4 42 -9 9 -5 44 -17 77 -26 33 -9 68 -20 77 -26 10 -5 27 -9 37
-9 11 0 22 -4 25 -9 3 -5 22 -12 41 -15 19 -3 51 -9 70 -12 19 -3 38 -10 41
-15 3 -5 15 -9 26 -9 12 0 35 -4 52 -10 84 -27 175 -53 211 -61 22 -4 60 -13
85 -19 46 -11 89 -21 174 -39 27 -6 54 -15 60 -20 6 -4 26 -9 44 -9 18 0 39
-5 45 -10 7 -5 30 -12 52 -15 22 -3 63 -11 90 -17 28 -6 70 -15 95 -20 25 -4
74 -15 110 -24 36 -9 84 -18 108 -20 24 -3 49 -9 55 -14 7 -6 31 -10 55 -10
24 -1 49 -5 55 -10 7 -6 32 -12 57 -15 25 -4 70 -11 100 -16 30 -6 80 -14 110
-20 145 -26 229 -41 275 -52 28 -6 79 -15 115 -20 36 -5 93 -14 128 -19 77
-12 166 -26 252 -39 36 -5 108 -17 160 -25 52 -9 120 -18 150 -21 30 -3 62 -8
70 -11 8 -4 51 -11 95 -16 167 -19 232 -27 305 -37 207 -29 312 -42 385 -47
44 -3 86 -9 95 -13 8 -5 48 -9 89 -10 40 -1 78 -4 85 -8 6 -4 53 -11 106 -15
214 -18 496 -46 530 -53 14 -2 68 -7 120 -9 52 -3 115 -9 140 -14 25 -5 85
-10 134 -11 49 -1 94 -5 100 -8 6 -4 71 -11 146 -15 74 -5 198 -13 275 -18
292 -21 406 -29 589 -39 103 -6 192 -13 196 -16 5 -3 91 -8 192 -11 100 -3
242 -9 313 -14 72 -5 242 -9 379 -10 137 0 344 -5 460 -10 273 -13 3141 -12
3354 0 89 5 278 10 420 10 141 1 318 5 392 10 74 5 200 11 280 14 80 3 182 10
228 15 45 6 123 10 172 10 50 0 95 3 100 6 6 4 84 11 173 16 274 15 436 27
445 33 4 3 51 6 103 7 52 0 110 5 129 10 19 4 73 9 120 10 47 1 105 6 130 11
25 5 81 11 125 13 44 2 110 8 145 14 36 6 88 10 117 10 28 -1 56 2 62 5 5 3
60 11 123 17 253 23 296 28 356 38 35 5 70 7 77 4 8 -2 29 0 47 6 18 5 68 13
112 16 43 3 81 7 85 9 4 3 42 7 85 10 43 4 82 8 86 11 5 3 50 10 102 16 92 11
163 20 308 38 41 5 99 14 129 20 30 6 58 8 63 4 6 -3 20 -1 31 5 12 6 60 16
107 22 132 19 249 37 403 61 31 5 83 12 115 17 31 4 62 11 69 15 6 4 33 10 60
12 26 3 84 12 128 21 44 8 97 17 117 19 21 2 43 7 49 10 6 4 39 12 72 17 95
14 158 25 199 36 20 5 39 7 43 4 3 -3 15 0 28 6 22 11 111 32 157 37 28 4 109
22 156 36 17 5 44 9 62 9 17 0 34 5 37 10 3 6 23 10 44 10 20 0 42 5 48 11 5
5 26 11 44 11 19 0 39 4 44 8 6 4 46 15 90 24 44 10 88 22 97 27 10 5 31 9 47
9 17 0 32 4 35 9 3 5 23 11 43 14 59 8 95 18 130 33 18 8 39 14 45 13 7 -1 26
3 41 9 16 7 37 12 47 12 10 0 22 5 25 10 3 6 21 10 40 10 19 0 37 5 40 10 3 6
19 10 35 10 16 0 32 5 35 10 3 6 19 10 35 10 16 0 32 5 35 10 3 5 19 10 34 10
15 0 31 4 36 9 6 5 37 16 70 26 33 9 68 21 77 26 10 5 27 9 37 9 11 0 23 5 26
10 3 6 19 10 36 10 16 0 29 4 29 9 0 5 12 11 28 14 35 6 144 47 157 58 5 5 19
9 31 9 13 0 26 5 29 10 3 6 15 10 26 10 10 0 28 5 39 10 11 6 29 15 40 20 11
6 26 10 33 10 8 0 35 11 61 25 26 14 51 23 55 20 5 -2 17 2 27 10 10 8 27 15
37 15 9 0 17 5 17 10 0 6 9 10 20 10 11 0 28 4 38 10 9 5 60 30 112 55 171 83
233 149 262 276 15 67 15 255 0 414 -6 66 -16 167 -21 225 -6 58 -18 157 -27
220 -8 63 -20 144 -24 180 -5 36 -13 90 -19 120 -5 30 -19 107 -30 170 -11 63
-27 149 -36 190 -9 41 -21 93 -25 115 -9 41 -12 52 -49 210 -23 100 -63 253
-86 330 -51 175 -153 495 -182 575 -93 255 -184 483 -248 625 -20 44 -41 94
-47 110 -7 17 -56 118 -109 225 -235 468 -466 825 -721 1115 -237 268 -285
317 -576 579 -81 72 -266 221 -362 291 -49 36 -275 189 -295 201 -11 6 -50 30
-86 52 -111 68 -477 256 -674 347 -33 15 -105 49 -160 75 -55 26 -118 56 -140
65 -22 10 -67 30 -100 45 -33 15 -78 35 -100 45 -22 10 -67 30 -100 45 -33 15
-87 40 -120 55 -33 14 -80 36 -105 47 -25 11 -54 24 -65 29 -43 17 -181 80
-197 89 -10 6 -27 10 -38 10 -11 0 -20 5 -20 10 0 6 -6 10 -13 10 -7 0 -31 8
-53 19 -21 10 -57 26 -79 36 -22 9 -60 26 -85 37 -25 11 -54 24 -65 28 -39 14
-71 28 -130 55 -33 15 -69 31 -80 35 -11 4 -41 17 -67 29 -26 12 -52 21 -57
21 -5 0 -33 12 -63 26 -29 15 -64 31 -78 36 -14 6 -33 14 -42 19 -10 5 -24 9
-32 9 -8 0 -34 10 -58 21 -23 12 -52 25 -63 29 -11 5 -46 20 -78 34 -32 14
-63 26 -70 26 -7 0 -17 4 -23 8 -5 5 -36 19 -69 32 -33 12 -76 29 -95 37 -72
30 -81 33 -102 42 -38 14 -82 33 -100 42 -10 5 -24 9 -31 9 -7 0 -37 11 -65
25 -29 14 -56 25 -61 25 -10 0 -107 37 -133 51 -10 5 -26 9 -36 9 -10 0 -22 4
-28 9 -10 10 -242 90 -294 102 -19 4 -51 12 -71 17 -62 16 -65 12 -110 -158
-12 -41 -24 -91 -29 -110 -5 -19 -16 -64 -25 -100 -8 -36 -27 -112 -41 -170
-48 -199 -83 -335 -114 -450 -18 -63 -41 -149 -52 -190 -31 -119 -34 -129 -67
-245 -17 -60 -36 -128 -42 -150 -6 -22 -15 -51 -19 -65 -4 -14 -13 -45 -20
-70 -7 -25 -18 -63 -25 -85 -7 -22 -23 -76 -35 -120 -12 -44 -36 -125 -52
-180 -17 -55 -41 -134 -54 -175 -12 -41 -32 -109 -45 -150 -19 -65 -51 -169
-128 -415 -94 -299 -249 -759 -348 -1030 -95 -261 -107 -292 -272 -705 -166
-417 -288 -701 -489 -1135 -163 -352 -600 -1203 -846 -1645 -511 -918 -642
-1121 -765 -1184 -38 -20 -140 -21 -177 -1 -48 25 -113 95 -188 205 -66 95
-210 328 -281 455 -15 28 -51 91 -80 140 -377 647 -898 1650 -1115 2145 -21
47 -54 121 -75 165 -122 263 -345 796 -482 1155 -140 364 -212 561 -329 905
-129 378 -185 551 -309 960 -20 66 -41 134 -46 150 -12 39 -88 300 -101 345
-5 19 -13 49 -18 65 -4 17 -15 55 -23 85 -44 159 -61 221 -79 285 -11 39 -26
97 -34 130 -8 33 -21 83 -29 110 -31 111 -68 252 -75 285 -5 19 -16 62 -25 95
-9 33 -27 102 -40 153 -66 256 -174 601 -213 679 -19 39 -28 42 -67 30z m-587
-4922 c63 -3 122 -10 132 -15 10 -6 30 -10 43 -10 37 0 123 -48 157 -87 17
-19 42 -57 57 -86 23 -45 27 -64 27 -137 0 -101 -20 -154 -84 -224 -47 -51
-97 -70 -220 -83 -99 -11 -2875 -10 -2965 1 -98 11 -146 31 -193 79 -67 69
-94 134 -95 230 -1 70 3 90 27 139 29 60 116 148 148 148 9 0 20 5 23 10 3 6
17 10 31 10 14 0 34 5 44 10 11 6 63 11 117 11 54 1 130 5 168 9 78 8 2404 4
2583 -5z"/>
<path d="M10006 7219 c-48 -4 -118 -10 -155 -13 -36 -4 -91 -12 -121 -19 -49
-11 -57 -16 -74 -51 -17 -36 -18 -46 -7 -140 29 -237 136 -791 223 -1146 19
-80 58 -196 72 -215 10 -13 30 -19 77 -22 35 -2 109 -8 164 -13 55 -5 275 -9
489 -9 503 0 653 17 685 77 15 29 83 300 121 487 7 33 16 74 21 90 7 26 26
128 68 360 5 28 15 82 21 120 7 39 16 88 20 110 5 22 12 95 16 162 9 157 2
175 -69 193 -29 6 -79 14 -112 16 -33 3 -101 9 -152 14 -108 12 -1157 11
-1287 -1z"/>
<path d="M10210 5219 c-228 -17 -248 -21 -258 -43 -14 -31 -47 -153 -82 -301
-17 -71 -35 -143 -39 -160 -5 -16 -26 -104 -46 -195 -20 -91 -40 -184 -45
-207 -6 -24 -14 -62 -20 -85 -5 -24 -16 -72 -24 -108 -13 -57 -30 -144 -66
-343 -12 -61 -9 -75 43 -202 140 -344 556 -1137 855 -1630 57 -94 98 -145 117
-145 16 0 56 60 165 245 51 88 114 196 140 240 176 300 532 980 628 1200 85
196 95 229 83 287 -6 29 -17 89 -26 133 -25 129 -37 188 -45 220 -4 17 -13 57
-21 90 -7 33 -30 130 -52 215 -21 85 -42 171 -47 190 -54 230 -152 551 -176
571 -8 7 -27 13 -42 14 -15 1 -76 5 -137 9 -142 10 -794 13 -905 5z"/>
</g>
</svg>
